<?xml version="1.0" encoding="utf-8"?>
<!-- Generator: Adobe Illustrator 22.0.1, SVG Export Plug-In . SVG Version: 6.00 Build 0)  -->
<svg version="1.1" id="katman_1" xmlns="http://www.w3.org/2000/svg" xmlns:xlink="http://www.w3.org/1999/xlink" x="0px" y="0px"
	 viewBox="0 0 386.7 406.1" style="enable-background:new 0 0 386.7 406.1;" xml:space="preserve">
<style type="text/css">
	.st0{fill:#fff;}
</style>
<g>
	<path class="st0" d="M298.9,215.4c-0.5-48.9,40-72.6,41.9-73.7c-22.9-33.4-58.4-38-70.9-38.3c-29.8-3.1-58.8,17.9-73.9,17.9
		c-15.5,0-38.9-17.6-64.1-17c-32.5,0.5-62.8,19.3-79.5,48.5C18,212,43.6,299.5,76.5,347.6c16.5,23.5,35.7,49.8,60.9,48.9
		c24.6-1,33.8-15.7,63.6-15.7c29.5,0,38.1,15.7,63.8,15.1c26.4-0.4,43.1-23.7,59-47.4c19.1-27,26.7-53.6,27-54.9
		C350.1,293.3,299.4,274,298.9,215.4"/>
	<path class="st0" d="M250.3,71.6c13.3-16.6,22.3-39.1,19.8-62c-19.2,0.9-43.1,13.3-57,29.5c-12.2,14.3-23.2,37.7-20.3,59.7
		C214.4,100.4,236.5,87.9,250.3,71.6"/>
</g>
</svg>
