<?xml version="1.0" encoding="utf-8"?>
<!-- Generator: Adobe Illustrator 22.0.1, SVG Export Plug-In . SVG Version: 6.00 Build 0)  -->
<svg version="1.1" id="Capa_1" xmlns="http://www.w3.org/2000/svg" xmlns:xlink="http://www.w3.org/1999/xlink" x="0px" y="0px"
	 viewBox="0 0 484 428" style="enable-background:new 0 0 484 428;" xml:space="preserve">
<style type="text/css">
	.st0{fill:#233e7a;}
</style>
<g>
	<path class="st0" d="M97.7,40.4c7.3,3.1,14.2,6,21.1,8.9c13.9,6,28.3,10.6,43.3,12.8c14.6,2.2,28.9,0.3,42.9-4.2c12.2-3.9,23.9-9.1,34.6-16.2
		c1.9-1.3,3.2-1.1,5.1,0c16.3,9.7,33.6,16.4,52.4,19.5c13.1,2.2,25.9,0.7,38.6-2.3c16.2-3.7,31.3-10.5,46.5-16.8
		c1.2-0.5,2.4-0.9,4.1-1.6c0,1.5,0,2.5,0,3.5c0,65.8,0,131.6,0,197.4c0,18.6-5.6,35.2-16.7,50.2c-31.4,42.5-72,73.3-120.3,94.2
		c-5.2,2.3-9.2,2.2-14.4-0.2c-46-21.5-84.9-52-117.1-91.3c-9.6-11.7-16.4-24.6-19-39.5c-0.8-4.9-1.3-9.9-1.4-14.8
		c-0.1-65.8-0.1-131.6-0.1-197.4C97.6,42.1,97.7,41.5,97.7,40.4z M124.8,81.1c0,1.4,0,2.4,0,3.5c0,20.1,0,40.2,0,60.3
		c0,31.6,0,63.2,0,94.8c0,12.8,3.8,24.4,11.8,34.4c28.3,35.7,62.8,63.8,103.8,83.8c1.2,0.6,3.2,0.6,4.4,0
		c38.4-17.4,71-42.1,97.5-75.1c10.1-12.6,17-25.9,16.9-42.5c-0.2-52-0.1-104-0.1-156c0-1.1,0-2.2,0-3.6c-1.4,0.4-2.4,0.7-3.3,1
		c-12.1,3.7-24.5,6.5-37.2,7.4c-23.1,1.6-44.9-4-66-12.9c-3.4-1.4-6.7-4.2-10-4.2c-3.4,0.1-6.8,2.8-10.2,4.4
		c-29.3,13.4-59.5,17.6-91,9.2C136.1,84.3,130.6,82.7,124.8,81.1z"/>
	<path class="st0" d="M164.5,201.2c6-6,12.2-12.3,18.8-18.9c14.5,14.6,29.1,29.3,43.8,44.1c26.7-26.8,53.2-53.3,79.6-79.7
		c6.6,6.6,12.9,12.8,19,18.9c-32.8,32.8-65.8,65.8-98.5,98.5C206.4,243.2,185.4,222.2,164.5,201.2z"/>
</g>
</svg>
