<?xml version="1.0" encoding="utf-8"?>
<!-- Generator: Adobe Illustrator 22.0.1, SVG Export Plug-In . SVG Version: 6.00 Build 0)  -->
<svg version="1.1" id="Modo_de_aislamiento" xmlns="http://www.w3.org/2000/svg" xmlns:xlink="http://www.w3.org/1999/xlink"
	 x="0px" y="0px" viewBox="0 0 792 374" style="enable-background:new 0 0 792 374;" xml:space="preserve">
<style type="text/css">
	.st0{fill:#003B77;}
	.st1{fill-rule:evenodd;clip-rule:evenodd;fill:#003B77;}
</style>
<g>
	<path class="st0" d="M504.9,192.7c-0.5,5.5-2.4,9.8-6,12.9c-3.5,3.1-8.2,4.7-14,4.7c-6.3,0-11.2-1.7-14.5-5.2
		c-3.3-3.5-5-8.5-5-15.1c0-8.7,2.1-15.7,6.3-20.9c4.2-5.2,9.8-7.8,16.9-7.8c5.7,0,10.2,1.5,13.5,4.5c3.3,3,5,7.1,5,12.3
		c0,1.3-0.1,2.8-0.2,4.3c-0.1,1.6-0.3,3.3-0.6,5.2h-24.5c-0.2,1.4-0.3,2.6-0.4,3.4c-0.1,0.8-0.1,1.5-0.1,2c0,1.6,0.4,2.8,1.1,3.5
		c0.7,0.8,1.8,1.2,3.3,1.2c1.6,0,2.8-0.4,3.6-1.3c0.8-0.9,1.3-2.1,1.4-3.9H504.9z M483,179.9h9.9c0.1-1,0.1-1.7,0.2-2.2
		c0-0.4,0-0.8,0-1.2c0-1.5-0.3-2.6-1-3.4c-0.6-0.8-1.6-1.2-2.9-1.2c-1.7,0-3,0.6-3.9,1.9C484.3,175.1,483.6,177.1,483,179.9"/>
	<path class="st0" d="M508,208.9l7.3-46.3h15.1l-0.8,4.8c1.6-1.8,3.4-3.2,5.4-4.2c2-1,4.1-1.4,6.4-1.4c3.6,0,6.4,0.9,8.3,2.7
		c2,1.8,3,4.4,3,7.7c0,0.8,0,1.7-0.1,2.7c-0.1,1-0.3,2.3-0.5,3.8l-4.7,30.2h-16.7l4.3-27.3c0-0.1,0-0.3,0-0.5c0.1-0.6,0.1-0.9,0.1-1
		c0-0.9-0.2-1.6-0.7-2c-0.5-0.5-1.2-0.7-2-0.7c-0.9,0-1.6,0.4-2.2,1.2c-0.6,0.8-1,1.9-1.2,3.4l-4.3,27.1H508z"/>
	<polygon class="st0" points="576.9,208.9 587.3,142.9 605.8,142.9 598,192.5 611.5,192.5 608.9,208.9 	"/>
	<path class="st0" d="M614.2,208.9l7.3-46.3h16.8l-7.3,46.3H614.2z M632.8,156.3h-7.1l5.4-14.1h11.8L632.8,156.3z"/>
	<path class="st0" d="M637.8,208.9l7.3-46.3h15.1l-0.8,4.8c1.6-1.8,3.4-3.2,5.5-4.2c2-1,4.1-1.4,6.4-1.4c3.6,0,6.4,0.9,8.3,2.7
		c2,1.8,3,4.4,3,7.7c0,0.8,0,1.7-0.1,2.7c-0.1,1-0.3,2.3-0.5,3.8l-4.8,30.2h-16.7l4.3-27.3c0-0.1,0-0.3,0-0.5c0.1-0.6,0.1-0.9,0.1-1
		c0-0.9-0.2-1.6-0.7-2c-0.5-0.5-1.2-0.7-2-0.7c-0.9,0-1.6,0.4-2.2,1.2c-0.6,0.8-1,1.9-1.2,3.4l-4.3,27.1H637.8z"/>
	<path class="st0" d="M725,192.7c-0.5,5.5-2.4,9.8-6,12.9c-3.5,3.1-8.2,4.7-14,4.7c-6.3,0-11.2-1.7-14.5-5.2c-3.3-3.5-5-8.5-5-15.1
		c0-8.7,2.1-15.7,6.3-20.9c4.2-5.2,9.8-7.8,16.9-7.8c5.7,0,10.2,1.5,13.5,4.5c3.3,3,5,7.1,5,12.3c0,1.3-0.1,2.8-0.2,4.3
		c-0.1,1.6-0.3,3.3-0.6,5.2h-24.5c-0.2,1.4-0.3,2.6-0.4,3.4c-0.1,0.8-0.1,1.5-0.1,2c0,1.6,0.4,2.8,1.1,3.5c0.7,0.8,1.8,1.2,3.3,1.2
		c1.6,0,2.8-0.4,3.6-1.3c0.8-0.9,1.3-2.1,1.4-3.9H725z M703.1,179.9h9.9c0.1-1,0.1-1.7,0.2-2.2c0-0.4,0-0.8,0-1.2
		c0-1.5-0.3-2.6-1-3.4c-0.7-0.8-1.6-1.2-2.9-1.2c-1.7,0-3,0.6-3.9,1.9C704.4,175.1,703.6,177.1,703.1,179.9"/>
	<path class="st0" d="M753,208.9l0.7-5.1c-2,2.2-4,3.9-5.9,4.9c-1.9,1-3.9,1.5-6,1.5c-3.6,0-6.5-1.4-8.5-4.3
		c-2-2.8-3.1-6.8-3.1-11.9c0-9.3,1.9-17.1,5.6-23.4c3.7-6.3,8.3-9.4,13.8-9.4c2.1,0,4,0.5,5.6,1.5c1.6,1,3,2.6,4.3,4.8l0.9-5H777
		l-7.3,46.3H753z M753.8,175.7c-1.7,0-3.1,1.4-4.4,4.3c-1.2,2.8-1.8,6.2-1.8,10.2c0,1.8,0.3,3.1,0.8,4.1c0.5,0.9,1.3,1.4,2.3,1.4
		c1.7,0,3.1-1.4,4.3-4.3c1.2-2.9,1.8-6.3,1.8-10.3c0-1.7-0.2-3.1-0.7-4C755.5,176.2,754.7,175.7,753.8,175.7"/>
	<path class="st1" d="M310.2,300.4c15.1-6.3,29.6-16.6,41-33.6c10.7-15.9,19.5-34.6,21-54.5c3.4-43.9-11.9-71-32.4-87.7
		c-9-7.4-19-12.5-29.6-15.7V82.8c2.1,0.1,4.2,0.2,6.4,0.4c47.7,4.4,115.1,42.9,104.1,120.6c-4.5,32.1-15.2,54.7-30.9,73.7
		c-20.4,24.8-48,40.7-79.6,46.2V300.4z M310.2,293.4c24-9.9,45.9-28.8,53.5-62c-11.7,25-32.7,40.1-53.5,46.5V293.4z M310.2,236.7
		c0.1,0,0.1,0,0.2,0c4.7-0.4,9.2-3.7,10.9-9.5l13.8-74.9c0.8-8.5-3.9-13.6-9.2-14.9c-4.7-1.1-10.9,0.8-13.5,8l1.5-8.2h-3.6v19.7
		l0.1-0.5c1.4-7.8,11.8-6.1,10.4,1.6l-10.3,56.1c0,0-0.1,0.4-0.2,1.1V236.7z M310.2,74.2c39.9,0.4,78.8,23.8,103,66.2
		c-16.8-42.9-49.6-64.9-54.8-68c-14.4-8.8-30.7-15.4-48.2-18.7V74.2z M283.3,325.9c-5.7-0.3-11.9-0.8-18.5-1.8v-14.8
		c7.2,0.1,14.3-0.6,21.5-1.9c7.9-1.5,16-3.7,23.9-7v23.3C301.5,325.2,292.5,326,283.3,325.9 M310.2,109c-11.4-3.3-23.5-4.3-36.2-2.8
		l-7.1,38.7c2.4-6.6,8.4-9.2,13.5-8c5.5,1.3,10.1,7.1,9.2,14.9l-13.7,74.9c-1.4,5.2-6.1,9.3-11.1,9.6v-21.6c0.2-0.6,0.2-1.1,0.2-1.1
		l10.3-56.1c1.4-7.7-9-9.4-10.4-1.6l-0.1,0.5V91.6c14.1-6.1,29.6-9.3,45.4-8.8V109z M310.2,53.7c-7.2-1.4-14.7-2.1-22.3-2.3
		c-8-0.1-15.7,0.5-23.1,1.7v31c14.7-6.8,30.1-10,45.4-9.9V53.7z M310.2,137.2h-9.4l-26.5,144.1c-3.3-0.4-6.5-1-9.6-1.8v23.7
		c13.8-0.2,30-2.8,45.4-9.1v-15.5c-7.8,2.4-15.7,3.6-22.9,3.6l10.2-55.9c1.3,6.7,7.3,10.9,12.7,10.5v-21.5c-0.6,2.1-2.2,6.7-6.6,6.1
		c-5.6-0.7-3.8-8.1-3.8-8.1l10.3-56.4V137.2z M264.8,324.1c-24-3.6-52.9-13.9-80.8-45.7c25,19.8,52.8,30.7,80.8,30.9V324.1z
		 M264.8,236.6c-0.3,0-0.7,0-1,0c-5.3-0.2-10.6-4.4-11.7-10.6l-1.9,10.5h-12.8l23.6-127.2c-22.7,7.2-40.9,21.6-52.7,44.4
		c2.7-11.2,11.8-25.7,17.5-32.7c10.3-12.5,23.8-22.5,39.1-29.1v64.7L254.4,213c0,0-1.9,7.3,3.8,8.1c4.3,0.6,6-3.9,6.6-6.1V236.6z
		 M264.8,53.1c-30.9,5-57,20.8-76.5,40.7c-24.9,25.5-37.6,63.6-37.3,96.9c1,75.6,54.2,106,102.5,111.4c3.5,0.3,7.4,0.5,11.4,0.4
		v-23.7c-45.5-11.1-71-55-65.2-106.8c3.5-27.8,17.4-52.4,36.3-69c9.2-8,18.9-14.3,28.9-18.9V53.1z"/>
	<path class="st0" d="M147.5,107.1c0,0-99.6-8.3-125.1,22.2C-3.1,159.8,121,211.8,164.1,226l-1.7-3.8c0,0-98.9-28.6-135-75.4
		c0,0-25.8-41.6,120.8-37.6l3.1-3.1L147.5,107.1z"/>
	<path class="st0" d="M462.3,174.2c-6.6-2.7-13.5-5.4-21-8.1l-2.8,3.6c0,0,9.3,3.1,22.7,8.4C461.6,176.7,462,175.5,462.3,174.2"/>
	<path class="st0" d="M541,215.2h-5.3c7.3,5.3,13.2,10.8,16.7,16.2c0,0,51.4,56-144.7,42.2c0,0-13.8,0.4-19.5-3.2l3.9,3.9
		c0,0,155.4,18.1,172.4-22.5C564.5,251.8,571.2,238.3,541,215.2"/>
	<path class="st0" d="M224.9,256.5c-0.1-0.1-0.2-0.1-0.2-0.2c-0.4-0.5-0.9-1-1.3-1.5c-34.8,5.2-81.1,8.3-114.9-4.1
		c0,0-36.6-11.4-17.5-40c19.1-28.6,40.4-35.5,40.4-35.5l-2.4-6.6c0,0-37.6,23.2-47.1,45.2c-9.5,22,0.2,45.6,59.4,49.4
		c29.4,1.9,58,0.7,86.7-3.7C227,258.7,225.9,257.6,224.9,256.5"/>
	<path class="st0" d="M494.7,119.7c0,0-47.2,48.6-122.3,87.4c0,1.6,0.1,3.3-0.1,5c52.2-26.8,108.4-64.5,130.9-93.8L494.7,119.7z"/>
	<path class="st0" d="M286.2,349.7c-88.8,0-161-72.2-161-161s72.3-161,161-161c88.8,0,161,72.3,161,161S375,349.7,286.2,349.7
		 M286.2,37.5c-83.3,0-151.1,67.8-151.1,151.1c0,83.3,67.8,151.1,151.1,151.1c83.3,0,151.1-67.8,151.1-151.1
		C437.3,105.3,369.5,37.5,286.2,37.5"/>
	<path class="st1" d="M93.3,108.1c0,4.6-3.7,8.3-8.3,8.3c-4.6,0-8.3-3.7-8.3-8.3c0-4.6,3.7-8.3,8.3-8.3
		C89.6,99.7,93.3,103.5,93.3,108.1"/>
	<path class="st1" d="M510.5,117.1c0,4.6-3.7,8.3-8.3,8.3c-4.6,0-8.3-3.7-8.3-8.3c0-4.6,3.7-8.3,8.3-8.3
		C506.8,108.8,510.5,112.5,510.5,117.1"/>
</g>
</svg>
