<?xml version="1.0" encoding="utf-8"?>
<!-- Generator: Adobe Illustrator 22.0.1, SVG Export Plug-In . SVG Version: 6.00 Build 0)  -->
<svg version="1.1" id="Capa_1" xmlns="http://www.w3.org/2000/svg" xmlns:xlink="http://www.w3.org/1999/xlink" x="0px" y="0px"
	 viewBox="0 0 177.3 173.8" style="enable-background:new 0 0 177.3 173.8;" xml:space="preserve">
<style type="text/css">
	.st0{fill:#003F7B;}
</style>
<g>
	<path class="st0" d="M65,90.7c-15.6-0.1-28.3,12.5-28.5,28.3c-0.1,15.8,12.6,28.6,28.4,28.7c15.6,0,28.5-12.7,28.5-28.4
		C93.4,103.5,80.7,90.7,65,90.7z M72.8,113.1l-1.1,4.3H62c0,0.3,0,0.5,0,0.8c0,0.4,0,0.7,0.1,1.1h9.2l-1.1,4.3l-6.2,0h0
		c1.3,1.5,3.3,2.3,5.7,2.3c1.4,0,2.7-0.2,3.8-0.7v5.8c-1.4,0.4-2.8,0.6-4.3,0.6c-5.8,0-10.4-3.1-12.4-8h-4.9l1.1-4.4h2.8
		c0-0.4,0-0.7,0-1.1c0-0.3,0-0.5,0-0.8h-3.8l1.1-4.4h3.6c1.9-5.1,6.7-8.3,12.4-8.3c1.9,0,4,0.4,5.8,1.1l-1.4,5.5
		c-1-0.4-2.6-0.7-3.9-0.7c-2.4,0-4.4,0.9-5.7,2.5H72.8z"/>
	<path class="st0" d="M31.9,86.9c-0.6-9.7,3.5-23.2,9.7-32c11.5-16.1,27.2-24.4,47-25c0-5.2,0-10.2,0-15.3
		C78.1,14,61.8,17.3,48.3,26.8C27.5,41.3,16.9,61.5,16.1,86.9c-3.9,0-7.8,0-12,0c6.7,9.1,13.2,18,19.8,27c6.6-9,13.2-17.9,19.9-27
		C39.7,86.9,35.8,86.9,31.9,86.9z"/>
	<path class="st0" d="M153.4,59.8c-6.6,9-13.2,17.9-19.9,27.1c4.3,0,8.1,0,12.1,0c-0.1,13.5-4.3,25.5-12.8,35.8
		c-11.3,13.7-26.1,20.6-44,21.1c0,5.2,0,10.3,0,15.3c10.9,0.5,26.9-2.9,40.3-12.2c20.8-14.5,31.3-34.7,32.2-60.1c3.9,0,7.8,0,11.9,0
		C166.5,77.7,160,68.9,153.4,59.8z"/>
	<path class="st0" d="M117.1,76.4c15.7,0,28.4-12.7,28.4-28.5c0-15.7-12.8-28.5-28.5-28.4c-15.7,0-28.4,12.8-28.4,28.5
		C88.7,63.7,101.4,76.4,117.1,76.4z M115.6,49.9c-3.7-0.9-8.4-2.1-8.4-7.9c0-4.2,2.6-6.8,6.9-7.6v-2.5h5.7v2.5
		c4.3,0.8,6.8,3.7,6.8,8l-7.1,0c0-1.5-1.2-2.2-2.7-2.2c-1.3,0-2.5,0.5-2.5,1.6c0,1.5,1.9,1.9,4.4,2.6c3.8,1,8.7,2.2,8.7,8.1
		c0,4.6-3,7.3-7.4,8.2v2.7h-5.7v-2.7c-4.7-0.8-7.5-3.9-7.5-8.6h7.3c0,1.7,1.4,2.6,3,2.6c1.5,0,2.9-0.8,2.9-2.1
		C120,50.9,118.1,50.5,115.6,49.9z"/>
</g>
</svg>
