<?xml version="1.0" encoding="utf-8"?>
<!-- Generator: Adobe Illustrator 22.0.1, SVG Export Plug-In . SVG Version: 6.00 Build 0)  -->
<svg version="1.1" id="Capa_1" xmlns="http://www.w3.org/2000/svg" xmlns:xlink="http://www.w3.org/1999/xlink" x="0px" y="0px"
	 viewBox="0 0 177.3 173.8" style="enable-background:new 0 0 177.3 173.8;" xml:space="preserve">
<style type="text/css">
	.st0{fill:#003F7B;}
</style>
<g>
	<path class="st0" d="M88.7,8.2c44.7-0.1,80.6,35.9,80.5,80.6c-0.1,44.4-35.9,80.1-80.4,80.2C44,169.1,8.2,133.1,8.3,88.3
		C8.4,43.8,44,8.2,88.7,8.2z M88.5,156.6c37.6,0.1,68.2-30.3,68.2-67.7c0.1-37.7-30.1-68.2-67.6-68.3c-37.9-0.1-68.4,30.2-68.5,67.9
		C20.6,126,51,156.5,88.5,156.6z"/>
	<path class="st0" d="M65.8,105.9c5.4,1.8,10.5,4,15.7,5c3.2,0.6,7,0,10.2-1.1c4.8-1.6,5.7-6.6,1.8-9.9c-3-2.5-6.8-4.1-10.2-6
		c-3.5-1.9-7.3-3.3-10.4-5.8c-11.5-9.1-9.3-25.7,4.1-31.8c1.8-0.8,3.7-1.5,5.7-2.3c0-2.7,0-5.4,0-8.4c4,0,7.7,0,11.9,0
		c0.1,2.3,0.3,4.7,0.4,7.4c3.5,0.7,7.2,1.1,10.5,2.2c1.4,0.5,2.9,2.4,3.1,3.9c0.5,3.2,0.1,6.6,0.1,9.9c-4.7-1.2-9.1-2.5-13.6-3.4
		c-1.9-0.4-4.3-0.6-5.9,0.2c-2.7,1.4-6.2,3.1-7.3,5.6c-1.6,3.6,2,6,5,7.5c4.7,2.5,9.6,4.5,14.3,7c7,3.8,10.8,9.6,10.5,17.8
		c-0.3,8-4,13.9-11.4,16.5c-4.7,1.6-6.4,3.8-5.7,8.5c0.1,0.8-0.1,1.6-0.2,2.6c-3.9,0-7.5,0-11.7,0c-0.1-2.5-0.3-5.1-0.4-7.9
		c-4.1-0.8-8.2-1.5-12.2-2.4c-3.1-0.7-4.9-2.2-4.5-5.8C66.1,112.2,65.8,108.9,65.8,105.9z"/>
</g>
</svg>
