<?xml version="1.0" encoding="utf-8"?>
<!-- Generator: Adobe Illustrator 22.0.1, SVG Export Plug-In . SVG Version: 6.00 Build 0)  -->
<svg version="1.1" id="Capa_1" xmlns="http://www.w3.org/2000/svg" xmlns:xlink="http://www.w3.org/1999/xlink" x="0px" y="0px"
	 viewBox="0 0 177.3 173.8" style="enable-background:new 0 0 177.3 173.8;" xml:space="preserve">
<style type="text/css">
	.st0{fill:#003F7B;}
</style>
<g>
	<path class="st0" d="M94.3,6c3,0.4,6,0.8,9,1.3c11.9,2.2,22.8,6.8,32.6,13.9c2.5,1.8,3.1,4.9,1.4,7.2c-1.7,2.4-4.7,2.9-7.2,1.1
		c-7.1-5-14.8-8.7-23.2-11C69.3,8.5,30.2,31.3,20.5,68.9c-8.5,33,7.4,67,38.2,81.6c38,18.1,83.9-1.6,96.9-41.5
		c6.1-18.7,4.6-36.9-4.2-54.5c-0.6-1.2-1.1-2.7-1.1-4c0.1-2.4,1.9-4.1,4.3-4.5c2-0.3,4.1,0.8,5.2,2.8c3,5.6,5.3,11.4,6.9,17.5
		c10.8,41.3-12.3,84.3-53,97.2c-29.6,9.4-56.5,3.4-79.7-17.2c-14.2-12.6-22.4-28.6-25.3-47.4c-0.3-2.1-0.6-4.2-0.9-6.3
		c0-3.8,0-7.6,0-11.4c0.1-0.4,0.3-0.8,0.3-1.2c0.7-9.3,3-18.2,7-26.6c12-25.2,31.9-40.5,59.3-46C77.3,6.8,80.1,6.5,83,6
		C86.7,6,90.5,6,94.3,6z"/>
	<path class="st0" d="M69.8,73.6c2.8,0,5.5,0,8.3,0c4,0,8,0,12,0c2.7,0,4.7,1.7,5.2,4.2c0.4,2.3-0.7,4.7-2.9,5.5
		c-1,0.4-2.1,0.5-3.2,0.5c-7.1,0-14.2,0-21.3,0c-0.5,0-0.9,0-1.6,0c0,1.9,0,3.8,0,5.9c0.6,0,1.3,0,1.9,0c7.3,0,14.5,0,21.8,0
		c3.7,0,6.1,3,5.3,6.3c-0.6,2.3-2.6,3.9-5.4,3.9c-6.1,0-12.2,0-18.3,0c-0.6,0-1.1,0-2,0c0.3,0.6,0.4,1,0.7,1.4
		c8.7,14.6,28.7,18.1,41.9,7.3c1.7-1.4,3.5-2.3,5.8-1.6c3.8,1.2,4.6,6.1,1.5,8.8c-4.9,4.3-10.6,7.2-17,8.4
		c-18.7,3.7-36.1-5.6-43.4-23.2c-0.4-0.9-0.8-1.2-1.7-1.2c-1.9,0.1-3.8,0-5.7,0c-3.2-0.1-5.4-2.1-5.5-5.1c0-3,2.2-5.1,5.5-5.2
		c1.5,0,2.9,0,4.5,0c0-1.9,0-3.7,0-5.8c-1.4,0-3,0-4.5,0c-3.2-0.1-5.5-2.1-5.5-5c0-2.9,2.1-5,5.2-5.2c1.9-0.1,3.9-0.1,5.8,0
		c1,0,1.4-0.3,1.8-1.2c5.4-12.6,14.9-20.5,28.3-23.2c11.2-2.2,21.3,0.4,30.4,7.2c2.6,2,3.1,5.1,1.3,7.4c-1.8,2.3-4.9,2.6-7.4,0.6
		c-11.5-8.9-27.6-7.3-37.2,2.6c-1.8,1.9-3.3,4-4.9,6.1C69.6,73.3,69.7,73.4,69.8,73.6z"/>
	<path class="st0" d="M146.2,42.7c-2.9,0-6.2-3.4-6.1-6.3c0-2.7,2.3-5,5-5.1c2.8-0.1,6.2,3.3,6.2,6.3
		C151.4,40.4,149,42.7,146.2,42.7z"/>
</g>
</svg>
