<?xml version="1.0" encoding="UTF-8"?><svg id="Layer_2" xmlns="http://www.w3.org/2000/svg" viewBox="0 0 496 495.97"><defs><style>.cls-1{fill:#004080;stroke-width:0px;}</style></defs><g id="Layer_1-2"><path class="cls-1" d="m248.55,0C108.52,0,0,102.34,0,240.57c0,72.3,29.71,134.78,78.07,177.94,8.35,7.51,6.63,11.86,8.05,58.23.38,10.99,9.6,19.6,20.59,19.22,2.51-.09,4.98-.65,7.29-1.65,52.91-23.3,53.59-25.14,62.56-22.7,153.29,42.19,319.44-55.91,319.44-231.04C496,102.34,388.59,0,248.55,0Zm149.24,185.13l-73,115.57c-11.06,17.43-34.15,22.59-51.57,11.54-.8-.51-1.58-1.04-2.34-1.61l-58.08-43.47c-5.33-4-12.67-4-18,0l-78.37,59.44c-10.46,7.93-24.16-4.6-17.11-15.67l73-115.57c11.05-17.43,34.13-22.6,51.56-11.55.8.51,1.59,1.05,2.35,1.62l58.06,43.46c5.33,4,12.67,4,18,0l78.41-59.38c10.44-7.98,24.14,4.54,17.09,15.62h0Z"/></g></svg>