<?xml version="1.0" encoding="utf-8"?>
<!-- Generator: Adobe Illustrator 22.0.1, SVG Export Plug-In . SVG Version: 6.00 Build 0)  -->
<svg version="1.1" id="katman_1" xmlns="http://www.w3.org/2000/svg" xmlns:xlink="http://www.w3.org/1999/xlink" x="0px" y="0px"
	 viewBox="0 0 386.7 406.1" style="enable-background:new 0 0 386.7 406.1;" xml:space="preserve">
<style type="text/css">
	.st0{fill:#fff;}
</style>
<g>
	<g>
		<path class="st0" d="M31.2,21.6c-4,4.5-6.4,11.3-6.4,20v322.9c0,7.4,1.7,13.3,4.7,17.7L208.6,201L31.2,21.6z"/>
	</g>
	<g>
		<path class="st0" d="M215,194.6l55.3-55.9L61.9,20.2c-8.7-4.9-16.6-5.9-23-3.7L215,194.6z"/>
	</g>
	<g>
		<path class="st0" d="M215,207.5L36.1,388.4c6.7,3.7,15.7,3.2,25.8-2.5l211-119.9L215,207.5z"/>
	</g>
	<g>
		<path class="st0" d="M346.6,182l-68.2-38.7L221.4,201l59.7,60.4l65.6-37.3C367,212.5,367,193.6,346.6,182z"/>
	</g>
</g>
</svg>
