<?xml version="1.0" encoding="utf-8"?>
<!-- Generator: Adobe Illustrator 22.0.1, SVG Export Plug-In . SVG Version: 6.00 Build 0)  -->
<svg version="1.1" id="katman_1" xmlns="http://www.w3.org/2000/svg" xmlns:xlink="http://www.w3.org/1999/xlink" x="0px" y="0px"
	 viewBox="0 0 386.7 406.1" style="enable-background:new 0 0 386.7 406.1;" xml:space="preserve">
<style type="text/css">
	.st0{fill:#fff;}
</style>
<g>
	<polygon class="st0" points="170.4,231.8 184.9,231.8 177.7,215 	"/>
	<path class="st0" d="M272.1,23.1H114.8c-74.2,0-101.4,27-101.4,101.2v157.3c0,74.2,27.2,101.4,101.4,101.4h157.3
		c74,0,101.2-27.2,101.2-101.4V124.3C373.3,50.1,346.3,23.1,272.1,23.1z M94.2,250.1h-9.5v-19.2H63.2v19.2h-9.5V203h9.5v18.9h21.5
		V203h9.5V250.1z M148,229.6c0,13.4-7.4,21.3-20.4,21.3c-12.7,0-20.1-7.7-20.1-21V203h9.5v26.6c0,8,3.8,12.1,10.7,12.1
		s10.7-4.2,10.7-11.9V203h9.5V229.6z M133.6,83.3h8.4c0,28.3,23.1,51.3,51.5,51.3c28.3,0,51.5-23,51.5-51.3h8.4
		c0,33-26.9,59.9-59.9,59.9C160.3,143.1,133.6,116.2,133.6,83.3z M192.7,250l-4.2-9.7H167l-4.3,9.7h-9.7l20.7-47h8.4l20.7,47H192.7z
		 M252.9,250.1h-8.1l-10.7-30.9l-10.7,30.9h-7.8L199.1,203h10.3l10.4,32.4l10.6-32.4h7.8l10.7,32.4l10.4-32.4h10L252.9,250.1z
		 M312.4,250h-35.6v-47h34.6v8.7h-25.2v9.5h17.4v8.7h-17.4v11.6h26.2V250z M333.3,250h-9.5v-47h9.5V250z"/>
</g>
</svg>
