<?xml version="1.0" encoding="utf-8"?>
<!-- Generator: Adobe Illustrator 17.0.0, SVG Export Plug-In . SVG Version: 6.00 Build 0)  -->
<!DOCTYPE svg PUBLIC "-//W3C//DTD SVG 1.0//EN" "http://www.w3.org/TR/2001/REC-SVG-20010904/DTD/svg10.dtd">
<svg version="1.0" id="Capa_1" xmlns="http://www.w3.org/2000/svg" xmlns:xlink="http://www.w3.org/1999/xlink" x="0px" y="0px"
	 width="247.8px" height="39.4px" viewBox="0 0 247.8 39.4" style="enable-background:new 0 0 247.8 39.4;" xml:space="preserve">
<style type="text/css">
	.st0{fill:#807F82;}
	.st1{fill:#F68E1E;}
</style>
<g>
	<polygon class="st0" points="0,39.4 15.1,39.4 15.1,25.4 33,25.4 33,16 15.1,16 15.1,9.6 33.6,9.6 33.6,0.2 0,0.2 0,39.4 	"/>
	<path class="st1" d="M150.1,8.1c0.6-6.1-5.1-7.9-11.3-7.9h-24.7l-10,39.2h22.7c8.1,0,16.4-1,18.9-10.9c1-3.9-1.3-8.2-6.5-8.9l0-0.1
		c3.5-0.8,6.2-2.3,8-4.5c-0.5,0-1,0-1.4,0c-0.4,0-0.9,0.1-1.1,0c-0.3,0-0.6,0-0.9,0.1c-0.2,0-0.9,0-1.3,0c-1.4,0-3.5,0.1-4.5,0
		c-0.3,0-0.9,0-1.1,0.1c-0.6,0.1-1.2,0-1.8,0.1c-1.6,0.4-2.4,0.6-3.5,1.4c-0.5,0.4-0.9,1-1.3,1.6c-0.2,0.2-0.5,0.4-0.8,0.6
		c-0.2,0.1-0.3,0.4-0.5,0.5c-1.9,1-5.2,0.9-7.5,0.2c-1.1-0.4-1.9-0.5-2.7-1.2c0-0.2,0.1-0.2,0.1-0.3c0.7-0.3,1.5-0.4,2.2-0.6
		c0.1,0,0.4,0,0.5,0c0.5-0.3,1.2-0.4,1.7-0.6c0.4-0.2,1.1-0.2,1.4-0.5c0.3-0.3,0.6-1,0.8-1.3c0.3-0.7,0.3-2.7-0.1-3.2
		c0.2-0.2-0.3-1-0.4-1.2c-0.5-1-1.1-2.1-2.2-2.4c-0.3-0.1-1.1,0.2-1.3,0.3c-0.9,0.4-2,0.6-3,0.9c-0.4,0.1-1.1,0.2-1.4,0.4
		c-0.2,0-0.3-0.1-0.5-0.2c0-0.2-0.2-0.4-0.1-0.7c0.3-0.9,1.5-1.8,2.2-2.3c1-0.7,2-1.6,3.1-2.2c0.4-0.2,0.8-0.3,1.2-0.5
		c0.4-0.2,1.9-0.6,2.5-0.4c0.4,0.1,0.9,0.1,1.3,0.3c0.2,0.1,0.7,0.6,1,0.6c0,0.1,0,0.1-0.1,0.2c0.3,0.1,0.4,0.3,0.7,0.4
		c0,0,0,0.1,0,0.1c-0.2,0-1.3-0.9-1.4-1c-0.1,0-0.1,0-0.2,0c0,0,0,0,0,0.1c0.4,0.1,0.5,0.5,0.9,0.6c0,0.1,0,0.1,0,0.2
		c-0.2-0.1-0.6-0.4-0.7-0.6c-0.1,0-0.1,0-0.2,0c0.1,0.3,0.6,0.4,0.8,0.7c0.3,0.4,0.7,0.8,1,1.2c0.2,0.2,0.1,0.3,0.4,0.5
		c0,0.1,0,0.1-0.1,0.2c0.2,0,0.2,0.1,0.4,0.2c0,0.1,0,0.1-0.1,0.1c0,0.1,0.4,0.6,0.4,0.6c0.1,0,0.1,0,0.2,0c-0.1,0.1,0,0.1-0.2,0.1
		c0.1,0.2,0.1,0.4,0.4,0.4c0,0.1,0,0.1-0.1,0.1c0.1,0.1,0.3,0.4,0.2,0.5c0.1,0.1,0,0.1,0.2,0.1c-0.1,0,0,0-0.1,0.1
		c0.1,0.2,0.1,0.5,0.1,0.5c0.1,0.2,0.1,0.2,0.2,0.4c0,0,0.1,0,0.1,0c0-0.2,0-0.7-0.2-0.8c0,0,0-0.1,0-0.1c0.1,0,0,0,0.1,0.1
		c0.3,0.3,0,0.7,0.4,0.9c0,0.1,0,0.1-0.1,0.2c0.1,0.1,0.1,0,0.1,0.2c0,0,0,0,0.1,0c0,0,0,0,0-0.1c0.1-0.1-0.2-0.6-0.1-0.9
		c0,0,0,0,0-0.1c-0.1,0-0.1,0-0.2-0.1c-0.1-0.1,0.1-0.3,0.1-0.4c0-0.1-0.1,0-0.2-0.2c0.1-0.1,0-0.1,0.2-0.1
		c-0.1-0.1-0.1-0.1-0.2-0.2c0.1,0,0,0,0.2-0.1c-0.1,0-0.1,0-0.2-0.1c0-0.1,0-0.3-0.1-0.4c0,0,0-0.1,0-0.1l0.1,0.1
		c0.1-0.1,0.1,0,0.1-0.2c0.1,0,0.2,0.1,0.3,0.2c0.2,0,0.1,0,0.2-0.1c0,0,0.1,0,0.1,0c0,0-0.1-0.1-0.2-0.1c0-0.1,0,0,0-0.1
		c0-0.1,0,0,0.1,0.1c0,0,0,0,0.1,0c0,0,0,0,0-0.1c0,0,0,0,0.1,0c-0.1-0.2-0.4-0.3-0.5-0.5c0,0.1,0,0-0.1,0.2c-0.1,0-0.1,0-0.2,0
		c-0.2-0.5-0.4-0.4-0.6-0.7c0,0,0,0-0.1,0c0,0,0-0.1,0-0.1c0.5,0.3,1,0.8,1.5,1.1c0.6,0.3,1.5,0.3,2,0.7c0.3,0,0.3,0,0.3-0.1
		c0.7,0.2,3.4,0.4,4.4,0.2c0.2,0,0.5,0.1,0.6,0.1c0.3,0,0.9-0.1,0.9,0.1c0.2-0.1,1.1-0.3,1.3,0c0.1-0.1,0.1,0,0.1-0.2
		c0.4,0.1,2.6,0.1,2.9,0.1c0,0,0,0,0,0.1c0,0.1,0,0-0.1,0.1c0,0,0,0,0,0.1c0.3,0,0.5,0.1,0.6-0.1c0.2,0,0.1,0,0.2,0.1
		c0.1,0,0.1,0,0.2,0c-0.1,0,0,0-0.1-0.1c0,0,0,0,0-0.1c0.2,0,0.3,0.2,0.4,0c0.3,0,0.5-0.1,0.6,0.1c0.2,0,0.2-0.1,0.5-0.1
		c-0.1,0,0,0-0.2,0.1c0.1,0.1,0.4,0.1,0.7,0.1c-0.1,0-0.1,0-0.3-0.1c0.2-0.1,0.4,0,0.5-0.1c0.1,0,0,0,0.1,0.1c0.2,0,0.2,0,0.3-0.1
		c0.1,0,0,0,0.1,0.1c0.5-0.1,2,0,2.2-0.2c0.1,0,0.1,0,0.2,0c-0.1,0.1,0,0-0.1,0.1c0,0,0,0.1,0.2,0.1C149.9,8.2,150,8.1,150.1,8.1
		C150.1,8.1,150.1,8.1,150.1,8.1L150.1,8.1z"/>
	<path class="st1" d="M179.4,0.2h-24.3l-2,7.8c1.9-0.2,3.8,0.1,5.4,0c0.1,0,0.4-0.1,0.5-0.1c0.4,0,0.7,0,1.1-0.1
		c0.2,0,0.5-0.2,0.7-0.2c0.2,0,0.5,0,0.8-0.1c0.4-0.1,1.2-0.7,1.4-0.7c0-0.1,0-0.1-0.1-0.2c0.3,0,0.2,0,0.4-0.2c0-0.1,0,0,0-0.1
		c0.1-0.1,0.3-0.1,0.4-0.2c0.1-0.1,0,0,0-0.2c0.1-0.1,0.2-0.1,0.4-0.2c0-0.1,0,0,0-0.2c0.2-0.1,0.6-0.3,0.8-0.6c0-0.1,0-0.1,0-0.2
		c0,0,0.1,0,0.1,0c0.1-0.1,0-0.1,0.1-0.2c0,0,0.1,0,0.1,0.1c0.3-0.2,0.6-0.6,0.9-0.8c1.5-1,5-1,7.3-0.4c0.4,0.1,0.6,0,1,0.2
		c0.5,0.2,1,0.4,1.4,0.6c0.3,0.2,0.7,0.5,0.7,0.8c0,0.2,0,0.2-0.2,0.3c-0.1,0-0.2,0-0.5,0c0.1,0.1,0.2,0.1,0.3,0.1
		c-0.2,0.1-0.3,0.1-0.6,0.2c-0.6,0.2-1.4,0.4-2,0.6c-0.4,0.1-0.9,0.1-1.3,0.4c-0.1,0-0.1,0-0.2-0.1c-0.3,0.1-1.3,0.3-1.6,0.4
		c-0.3,0.2-0.6,0.6-0.8,1.2c0,0.1,0.1,0.1,0.1,0.2l-0.1,0.1c0,0.1,0,0.2,0,0.4c-0.1,0.4-0.2,1.1-0.1,1.6c0,0.1,0,0.3,0,0.4
		c0.1,0.5,0.3,1.2,0.6,1.6c0,0,0,0.1,0,0.1c0,0,0,0-0.1,0c-0.1-0.1-0.1-0.3-0.2-0.4c-0.1-0.1,0,0-0.2,0c0.1,0.2,0.4,0.5,0.5,0.7
		c0.1,0.2,0,0.3,0.1,0.4c0.1,0.1,0.2,0.2,0.3,0.3c0.3,0.5,0.7,0.8,1.1,1.2c0,0,0.4,0.1,0.6,0.2c0-0.1,0,0,0-0.2c0.4,0.2,1,0,1.3-0.2
		c0,0,0,0,0.1,0c0,0,0,0,0,0.1c0.3-0.1,0.7-0.1,1-0.2c0.6-0.2,1.6-0.4,2.2-0.6c0.4-0.1,1.4-0.6,1.7-0.4c0.1,0,0.1,0,0.2,0
		c-0.1-0.1,0-0.1-0.2-0.1c0,0,0,0,0-0.1c0.1,0,0.2,0,0.3,0.1c0.2,0.1,0.2,0.4,0.3,0.6c-0.1,0.1-0.1,0.3-0.3,0.5
		c-0.2,0.2-0.4,0.3-0.6,0.5c-0.3,0.3-0.7,0.7-1,1c-1.4,1-2.6,2-4.3,2.7c-0.5,0.2-1,0.4-1.6,0.6c-0.3,0.1-0.5-0.1-0.8,0
		c-0.1,0-0.4,0.1-0.5,0.1c0,0,0-0.1-0.1-0.1c-0.2,0-0.3,0-0.5,0c-0.2-0.1-0.5-0.2-0.7-0.3c0,0-0.1,0-0.1,0.1
		c-0.1-0.1-0.2-0.3-0.3-0.3c-0.1,0-0.1,0-0.2,0.1c-0.2-0.2-0.5-0.4-0.7-0.6c-0.2-0.1-0.4-0.2-0.6-0.4c-0.6-0.5-1.1-1.1-1.8-1.7
		c-0.6-0.5-1.7-0.9-2.4-1.1c-0.7-0.2-1.4-0.1-2.3-0.1c-0.3,0-0.6,0-0.8,0c-0.5-0.1-1.6-0.1-2.4-0.1c-1.9,0-4.1,0.1-5.4-0.1
		c-0.2,0-0.4,0-0.6,0l-6.2,24.5h15.1l3.4-13.3h3.4c1.9,0,3.3,0.2,3.8,2c0.6,2.4-0.8,8.5-0.8,11.3h15.7c-0.6-3.8,1.1-9.9-0.1-14
		c-0.9-2.1-2.4-3.7-5.6-4.2l0-0.1c6-1.3,10.5-4.4,12-10.4C193.8,3.1,188.8,0.2,179.4,0.2L179.4,0.2z"/>
	<path class="st1" d="M212.1,0.2h-15.1l-10,39.2h15.1L212.1,0.2L212.1,0.2z M207.3,5.6c1,2.5-0.1,5.3-2.6,6.3
		c-2.5,1-5.3-0.1-6.3-2.6c-1-2.5,0.1-5.3,2.6-6.3C203.4,2,206.3,3.2,207.3,5.6L207.3,5.6z M204,11.6l1-0.4l-3.3-7.7l-1,0.4L204,11.6
		L204,11.6z"/>
	<path class="st1" d="M241,27.8c-3,0.9-5.8,1.5-8.5,1.5c-6.2,0-9.9-3.3-8.2-9.9c1.6-6.2,7.3-9.5,13.7-9.5c2.5,0,4.9,0.7,7.2,1.4
		l2.6-10c-3.9-0.7-6.2-1.2-10.4-1.2c-12.6,0-25.1,6.4-28.5,19.1c-3.5,13.6,5.2,20.2,18.2,20.2c3.8,0,8.2-0.8,11.2-1.5L241,27.8
		L241,27.8z"/>
	<path class="st0" d="M84.7,15.1c0,0.1,0,0.3,0,0.4c0,0.2,0.7,0.5,0.9,0.5c0.1,0,0,0,0.1,0c-0.2-0.2-0.5-0.3-0.5-0.5
		c-0.1-0.1,0-0.5,0.1-0.6c0.2-0.2,1-0.3,1.4-0.2c0,0,0,0,0-0.1c-0.6-0.4-1.5-0.8-1.1-1.4c0.1-0.1,0.1-0.2,0.2-0.2
		c0.3-0.1,0.7,0,1.1-0.1c0,0,0.1,0,0.1,0c-0.1-0.1-0.3-0.1-0.3-0.2c0,0,0,0,0-0.1c-0.1-0.1-0.3-0.1-0.4-0.3
		c-0.4-0.4-0.4-0.6-0.2-1.1c0.4-0.1,0.6-0.3,1.2-0.2c0,0,0,0,0,0c-0.3-0.2-0.6-0.4-0.8-0.6c-0.1-0.1-0.1-0.3-0.2-0.4
		c0.1-0.2,0.1-0.4,0.2-0.6c0.2-0.1,0.3-0.1,0.5-0.2c0.1,0,0.2,0,0.3,0c-0.2-0.1-0.6-0.2-0.7-0.2C86.2,9.1,86,9,85.9,9
		c0,0.1-0.1,0.3-0.1,0.4c-0.1,0.1-0.2,0.2-0.3,0.3c-0.1,0.2-0.1,0.7-0.1,0.9c0,0.1-0.1,0.2-0.1,0.3c0,0.4-0.1,0.7-0.1,1
		c0,0.2-0.1,0.3-0.1,0.5c-0.1,0.4-0.2,0.8-0.2,1.1c0,0.2-0.1,0.4-0.1,0.6C84.7,14.5,84.7,14.8,84.7,15.1L84.7,15.1z M110.9,10.7
		c0-7.5-5.8-10.4-15.2-10.4H71.4v9c0.3,0,0.6,0,0.8,0c0.2,0,0.3,0,0.5,0.1c0.2,0,0.4,0,0.5,0c0.1,0,0.2,0,0.3,0c1,0,2.1,0,3.1-0.1
		c0.1,0,0.3-0.1,0.4-0.1c0.1,0,0.1,0,0.2,0c0.2,0,0.4-0.1,0.6-0.1c0.3,0,0.7,0,1-0.1C79.9,8.8,81,8.5,82,8.2c0.1,0,0.2-0.1,0.3-0.1
		c0.6-0.2,1.2-0.5,1.8-0.7c0.1,0,0.1-0.1,0.2-0.1c0.1,0,0.1,0,0.2-0.1C84.7,7.1,84.8,7,84.9,7c0.2-0.1,0.4-0.2,0.6-0.3
		c0,0,0.1,0,0.1,0c0.8-0.4,1.6-0.9,2.5-1.2c0.1,0,0.2-0.2,0.3-0.2c0.3-0.1,0.6-0.3,0.9-0.4c0.1-0.1,0.2-0.1,0.3-0.2
		c0.4-0.1,0.8-0.3,1.2-0.5c0.2-0.1,0.4-0.2,0.6-0.3c0.4-0.1,0.9-0.2,1.2-0.2c0.4,0,0.7-0.1,1.2,0.1c0.1,0.1,0.2,0.1,0.3,0.2
		c0.1,0.1,0.3,0.2,0.4,0.2c0.1,0,0.1,0.1,0.2,0.1c0.1,0.1,0.4,0.3,0.6,0.4C95.4,4.8,95.5,5,95.6,5c0.1,0,0.1,0.1,0.2,0.1
		c0.1,0.1,0.3,0.4,0.5,0.4c0.2,0.3,0.5,0.4,0.7,0.7c0.5,0.6,1,1.1,1.5,1.7c0.2,0.2,0.3,0.5,0.5,0.7c0.1,0.1,0.2,0.2,0.2,0.3
		c0,0,0.1,0.1,0.1,0.2c0.1,0.1,0.2,0.2,0.3,0.4c0,0.1,0.1,0.2,0.1,0.2c0.1,0.1,0.2,0.2,0.2,0.3c0,0.1,0.1,0.2,0.1,0.3
		c0,0,0.1,0.1,0.1,0.1c0.1,0.1,0.1,0.3,0.1,0.5c0,0.1-0.1,0.3,0,0.4c-0.1,0.5-0.7,0.5-1.1,0.4c-0.1,0-0.2,0-0.3-0.1
		c-0.3,0-0.7-0.2-1-0.3c-0.2-0.1-0.3-0.1-0.5-0.2c-0.2,0-0.5-0.1-0.7-0.2c-0.1,0-0.2-0.1-0.3-0.1c-0.1,0-0.4-0.1-0.5-0.1
		c0,0-0.1-0.1-0.1-0.1c-0.3-0.1-0.8-0.2-1.1-0.3c-0.1,0-0.1-0.1-0.2-0.1c-0.2,0-0.4-0.1-0.6-0.2c-0.1,0-0.3-0.1-0.4-0.1
		c-0.2,0-0.3,0.1-0.4,0.2c-0.1,0-0.1,0-0.2,0.1c-0.1,0-0.1,0.1-0.1,0.2c-0.1,0-0.1,0-0.2,0.1c-0.1,0.1-0.1,0.6-0.1,0.7
		c0,0.1-0.1,0.2-0.1,0.3c0,0.1-0.1,0.3-0.1,0.4c0,0.1,0,0.1,0,0.2c0,0.3,0.2,0.5,0.2,0.7c0,0.1,0,0.1,0,0.2c0,0.1,0.1,0.3,0.2,0.4
		c0.1,0.1,0.4,0.2,0.5,0.2c0.3,0.1,0.7,0.1,1,0.1c0.3,0.1,0.7,0.2,1,0.3c0.2,0,0.5,0.2,0.8,0.2c0.1,0,0.3,0.1,0.4,0.1
		c0.1,0,0.2,0.1,0.4,0.1c0.1,0,0.3,0.1,0.4,0.1c0.1,0,0.3,0.1,0.4,0.1c0.1,0,0.3,0.1,0.3,0.1c0.2,0.1,0.4,0.1,0.6,0.2
		c0.1,0,0.3,0.1,0.4,0.1c0.1,0,0.2,0.1,0.2,0.1c0.1,0,0.2,0.1,0.2,0.1c-0.1,0.2-0.1,0.5-0.2,0.6c0,0,0,0.1,0,0.1
		c-0.1,0.1-0.2,0.1-0.3,0.2c0,0.1-0.2,0.1-0.3,0.2c-0.3,0.2-0.6,0.4-0.9,0.5c-0.1,0-0.2,0.1-0.3,0.2c-0.5,0.2-1,0.4-1.5,0.6
		c-0.2,0.1-0.4,0.1-0.5,0.2c0,0,0,0-0.1,0c-0.1,0-0.2,0.1-0.3,0.1c-0.2,0.1-0.4,0.1-0.6,0.2c0,0-0.4,0-0.4,0c-0.1,0-0.2,0.1-0.2,0.1
		c-0.1,0-0.2,0-0.4,0c0,0,0,0,0,0c-0.2,0.1-0.5,0-0.7,0.1c0,0,0,0,0,0c0,0-0.1,0-0.1,0c-0.1,0-0.2,0-0.3,0c-0.1,0-0.2,0-0.3,0.1
		c0-0.1-0.1,0-0.1,0c-0.1,0-0.4,0-0.5,0c-0.1,0.2-0.1,0.5-0.1,0.6c0,0.2-0.1,0.3-0.1,0.5l0,0.1c-0.1,0.2-0.1,0.5-0.1,0.7
		c0,0.2-0.1,0.3-0.1,0.5l0,0.1c-0.1,0.3-0.1,0.5-0.1,0.8c-0.1,0.2-0.1,0.4-0.2,0.6c0,0.4-0.2,0.8-0.5,0.9c-0.2,0.1-0.4-0.1-0.6-0.1
		c-0.1,0-0.6-0.3-0.7-0.4c0,0-0.1-0.1-0.2-0.2c-0.2-0.1-0.4-0.2-0.5-0.3c-0.1-0.2-0.4-0.3-0.5-0.5c0,0-0.1,0-0.1,0
		c-0.1-0.1-0.2-0.2-0.3-0.3c0,0,0,0,0,0c-0.1-0.1-0.2-0.2-0.3-0.3c-0.1,0-0.1-0.1-0.2-0.1c0,0-0.1-0.1-0.1-0.1c0,0-0.1,0-0.1,0
		c-0.7-0.6-1.5-1.3-2.4-1.9c-0.4-0.2-0.9-0.5-1.3-0.8c-0.1,0-0.2,0-0.2,0c-0.1-0.1-0.1-0.1-0.2-0.2c-0.1-0.1-0.3-0.1-0.4-0.2
		c-0.1-0.1-0.3-0.2-0.5-0.2c-0.1,0-0.2-0.1-0.3-0.1c-0.2-0.1-0.5-0.2-0.8-0.3c-0.2-0.1-0.4-0.1-0.6-0.2c0,0-0.1,0-0.1,0
		c-0.2-0.1-0.7-0.3-1-0.3c-0.2-0.1-0.5-0.1-0.7-0.2c-0.3,0-0.6-0.1-0.8-0.1c-0.4,0-0.9-0.2-1.3-0.2c-1.3,0-2.6-0.1-3.9,0
		c-0.1,0-0.3,0-0.4,0v23.4h15.1V26.1h3.4c1.9,0,3.4,0.2,4.3,2c1.2,2.4,1.4,8.5,2.1,11.3h15.7c-1.6-3.8-1.4-9.9-3.7-14
		c-1.4-2.1-3.4-3.7-6.6-4.2V21C107.2,19.7,110.9,16.7,110.9,10.7L110.9,10.7z"/>
	<polygon class="st0" points="35.2,39.4 69.6,39.4 69.6,30 49.9,30 49.9,24.6 68.3,24.6 68.3,16.2 49.9,16.2 49.9,9.2 69.2,9.2 
		69.2,0.2 35.2,0.2 35.2,39.4 	"/>
</g>
</svg>
