<?xml version="1.0" encoding="utf-8"?>
<!-- Generator: Adobe Illustrator 22.0.1, SVG Export Plug-In . SVG Version: 6.00 Build 0)  -->
<svg version="1.1" id="Capa_1" xmlns="http://www.w3.org/2000/svg" xmlns:xlink="http://www.w3.org/1999/xlink" x="0px" y="0px"
	 viewBox="0 0 484 428" style="enable-background:new 0 0 484 428;" xml:space="preserve">

<style type="text/css">
	.st0{fill:#233e7a;}
</style>
<g>
	<path class="st0" d="M172.1,411.1c-1-0.4-2.1-0.9-3.1-1.2c-10.5-3.6-17.5-13-17.5-24c0-83.7,0-167.4,0-251.1c0-13.9,11.2-25,25.1-25.2
		c5.1-0.1,10.2,0,15.9,0c0-1.7,0-3.2,0-4.7c0-24.8,0.1-49.5-0.1-74.3c-0.1-7.2,2.4-11.7,11.7-11.6c25.9,0.3,51.8,0.1,77.7,0.1
		c8,0,10.8,2.7,10.9,10.7c0,25,0,50,0,75c0,1.4,0,2.8,0,4.7c4.4,0,8.4,0.2,12.4,0c16.8-1.1,28.8,11.6,28.7,28.7
		c-0.4,81.5-0.2,163.1-0.2,244.6c0,15-5.8,23.1-20.1,27.8c-0.2,0.1-0.4,0.3-0.6,0.5C266,411.1,219,411.1,172.1,411.1z M192.4,126.3
		c-4.7,0-8.8,0-12.8,0c-8.3,0-11.3,3-11.3,11.2c0,81.9,0,163.8,0,245.8c0,8.1,2.9,11.1,11,11.1c42,0,84,0,125.9,0
		c8.9,0,11.7-2.7,11.7-11.6c0-81.7,0-163.3,0-245c0-1,0.1-2,0-3.1c-0.3-4.2-2.8-7.7-6.9-8c-5.6-0.5-11.3-0.1-17.3-0.1
		c0,4.6-0.1,8.9,0.1,13.2c0,0.8,1,2,1.8,2.3c4.5,1.7,6.1,5.1,6.1,9.6c0,23.4,0,46.7,0,70.1c0,6.2-3.2,9.6-9.3,9.6
		c-32.5,0.1-65.1,0.1-97.6,0c-5.9,0-9.2-3.4-9.2-9.3c0-23.6,0-47.2,0-70.8c0-4.2,1.7-7.3,5.8-9c0.9-0.4,2-1.6,2.1-2.5
		C192.5,135.4,192.4,131.1,192.4,126.3z M209.5,141.5c22.2,0,44,0,66,0c0-35.2,0-70.2,0-105.4c-22.1,0-44,0-66,0
		C209.5,71.3,209.5,106.2,209.5,141.5z M283.6,214.4c0-18.5,0-36.7,0-55c-27.5,0-54.8,0-82.1,0c0,18.5,0,36.7,0,55
		C228.9,214.4,256.1,214.4,283.6,214.4z"/>
	<path class="st0" d="M211.4,317c-6,0-12,0.1-18,0c-5.5-0.1-9-3.3-9.1-8.2c-0.1-5,3.6-8.6,9.2-8.6c11.9-0.1,23.7-0.1,35.6,0
		c5.5,0,9.4,3.7,9.4,8.5c0,4.9-3.8,8.2-9.5,8.3C223.2,317.1,217.3,317,211.4,317z"/>
	<path class="st0" d="M273.5,317c-6,0-12,0.1-18,0c-5.3-0.1-9-3.6-9-8.3c0-4.7,3.8-8.4,9.1-8.4c12-0.1,24-0.1,35.9,0c5.6,0,9.2,3.7,9.1,8.7
		c-0.1,4.8-3.7,8-9.2,8.1C285.5,317.1,279.5,317,273.5,317z"/>
	<path class="st0" d="M211.6,344.5c6,0,12,0,18,0c5.1,0.1,8.8,3.4,8.9,8c0.2,4.6-3.7,8.6-8.8,8.7c-12.2,0.1-24.5,0.1-36.7,0
		c-5.2-0.1-8.8-3.9-8.6-8.7c0.2-4.7,3.7-7.9,8.9-8C199.4,344.5,205.5,344.5,211.6,344.5z"/>
	<path class="st0" d="M273.5,344.5c6.1,0,12.2,0,18.4,0c5.2,0.1,8.7,3.3,8.8,8.1c0.1,4.7-3.3,8.5-8.4,8.6c-12.5,0.2-25,0.2-37.5,0
		c-4.9-0.1-8.5-4.3-8.3-8.7c0.2-4.5,3.8-7.8,8.6-7.9C261.3,344.5,267.4,344.5,273.5,344.5z"/>
	<path class="st0" d="M273.6,257.2c6.1,0,12.2-0.1,18.4,0c5.2,0.1,8.7,3.4,8.7,8.1c0.1,4.7-3.3,8.5-8.4,8.6c-12.4,0.2-24.7,0.2-37.1,0
		c-5-0.1-8.7-3.9-8.7-8.4c0-4.7,3.7-8.2,9.1-8.3C261.6,257.1,267.6,257.2,273.6,257.2z"/>
	<path class="st0" d="M211.1,274c-5.7,0-11.5,0.1-17.2,0c-5.9-0.1-9.6-3.5-9.6-8.6c0.1-4.9,3.7-8.1,9.5-8.2c11.7,0,23.5,0,35.2,0
		c5.7,0,9.5,3.4,9.5,8.3c0,4.8-3.9,8.4-9.4,8.5C223.1,274,217.1,274,211.1,274z"/>
</g>
</svg>
