<?xml version="1.0" encoding="utf-8"?>
<!-- Generator: Adobe Illustrator 22.0.1, SVG Export Plug-In . SVG Version: 6.00 Build 0)  -->
<svg version="1.1" id="Capa_1" xmlns="http://www.w3.org/2000/svg" xmlns:xlink="http://www.w3.org/1999/xlink" x="0px" y="0px"
	 viewBox="0 0 484 428" style="enable-background:new 0 0 484 428;" xml:space="preserve">
<g>
	<path fill="#ffff" d="M241.9,80.7c28.9,1.2,58.1,2.2,87.2,3.8c12.6,0.7,25.2,2,37.4,5.8c14.5,4.4,24.1,13.6,27.7,28.4c2.1,8.9,3.8,18,4.6,27.1
		c3.1,35.1,2.7,70.2-0.9,105.2c-2.1,20.6-10.6,37-27.6,49c-1.7,1.2-3.2,2.5-4.9,3.6c-17.1,11.7-35.3,21.3-54.7,28.4
		c-18.9,6.9-38.4,11-58.4,13.2c-6.9,0.8-12.5,3.8-16.3,9.6c-3.3,5.2-6.4,10.5-9.3,15.8c-2.8,5.1-0.5,8.9,5.4,8.9
		c4.1,0,8.1-0.6,12.2-0.9c26.6-2,52.5-7.2,77.7-16c27.6-9.7,52.9-23.6,75.3-42.5c16.5-13.9,27.5-31.2,31-52.7
		c1.7-10.3,3.1-20.6,3.9-31c2.3-28.8,2.4-57.6,0-86.3c-1-12-2.4-24-5-35.8c-6.4-29.1-24.3-47.9-53-56c-7.8-2.2-15.9-3.8-24-4.7
		c-29.2-3.4-58.6-4.7-88-5.1c-34.3-0.4-68.6,0-102.8,2.6c-15.3,1.1-30.5,2.3-45.5,6c-29,7.2-48.4,24.5-56.2,53.7
		c-1.9,7.1-3.1,14.4-4,21.7c-3.9,32.3-4.7,64.8-2.3,97.3c1,13.2,2.4,26.5,4.8,39.5c5.9,31.3,24.5,51.4,55.3,59.6
		c7.3,2,14.8,3.5,22.2,4.1c20.9,1.8,41.9,3.4,62.9,4.6c12,0.7,24.1,0.4,36.1,0.6c6,0.1,11.8-1.4,15.4-6.1
		c4.7-6.1,8.6-12.9,12.3-19.6c1.9-3.4-0.3-6.4-4.3-7c-2-0.3-4.1-0.1-6.1-0.1c-36.1,0-72.3-0.2-108.3-4.3c-9.3-1-18.5-3-27.5-5.7
		c-12.1-3.7-20-12.3-23.8-24.4c-1.7-5.4-3-11.1-3.8-16.7c-4.7-34.2-4.7-68.5-2.1-102.7c0.8-9.9,2.3-19.9,4.3-29.7
		c3.5-18,14.8-28.9,32.5-32.5c11.2-2.3,22.5-4.1,33.9-4.8C184.1,82.8,212.8,81.9,241.9,80.7z"/>
	<path fill="#ffff" d="M329.3,191.8C329.3,191.8,329.3,191.8,329.3,191.8c0-1.8,0-3.7,0-5.5c0-7.4,0.2-14.7-0.1-22.1
		c-0.4-10.1-7.9-17.5-17.6-17.7c-9.8-0.2-17.4,6.6-18.6,16.6c-0.2,1.4-0.1,2.9-0.1,4.3c0,16.1,0,32.3,0,48.4c0,2.6,0.2,5.3,0.9,7.9
		c2.4,9.2,11.5,14.7,20.7,12.9c8.9-1.8,14.6-8.7,14.8-18.4C329.4,209.4,329.3,200.6,329.3,191.8z"/>
	<path fill="#ffff" d="M191.1,191.8C191.1,191.8,191.1,191.8,191.1,191.8c0-8.6,0.1-17.2,0-25.7c0-2.2-0.1-4.5-0.7-6.7
		c-2.4-8.6-10.7-13.9-19.8-12.8c-8.5,1-15.2,8.2-15.4,17.1c-0.2,9-0.1,18-0.1,27c0,9.6-0.1,19.2,0.1,28.8
		c0.2,8.1,5.4,14.6,12.9,16.8c11.5,3.3,22.7-4.8,23.1-16.9C191.3,210.2,191.1,201,191.1,191.8z"/>
	<path fill="#ffff" d="M241.9,80.7c-29.1,1.2-57.9,2.1-86.6,3.8c-11.4,0.7-22.7,2.5-33.9,4.8c-17.7,3.6-29,14.6-32.5,32.5
		c-1.9,9.8-3.5,19.7-4.3,29.7c-2.6,34.3-2.5,68.6,2.1,102.7c0.8,5.6,2.1,11.3,3.8,16.7c3.7,12.1,11.7,20.8,23.8,24.4
		c8.9,2.7,18.2,4.7,27.5,5.7c36,4.1,72.1,4.2,108.3,4.3c2,0,4.1-0.1,6.1,0.1c4,0.6,6.1,3.6,4.3,7c-3.7,6.8-7.6,13.5-12.3,19.6
		c-3.6,4.7-9.4,6.2-15.4,6.1c-12-0.2-24.1,0.1-36.1-0.6c-21-1.2-42-2.7-62.9-4.6c-7.5-0.7-15-2.2-22.2-4.1
		c-30.8-8.3-49.5-28.3-55.3-59.6c-2.4-13-3.8-26.3-4.8-39.5c-2.4-32.5-1.6-64.9,2.3-97.3c0.9-7.3,2.1-14.6,4-21.7
		c7.9-29.2,27.3-46.5,56.2-53.7c14.9-3.7,30.2-4.9,45.5-6c34.2-2.6,68.5-3,102.8-2.6c29.4,0.3,58.8,1.6,88,5.1
		c8.1,0.9,16.2,2.5,24,4.7c28.7,8.1,46.7,26.9,53,56c2.6,11.7,4,23.8,5,35.8c2.4,28.8,2.4,57.6,0,86.3c-0.8,10.4-2.2,20.7-3.9,31
		c-3.5,21.5-14.6,38.8-31,52.7c-22.4,18.9-47.7,32.8-75.3,42.5c-25.2,8.9-51.1,14.1-77.7,16c-4.1,0.3-8.1,0.9-12.2,0.9
		c-5.8,0-8.1-3.8-5.4-8.9c2.9-5.4,6-10.7,9.3-15.8c3.8-5.9,9.3-8.8,16.3-9.6c19.9-2.2,39.5-6.4,58.4-13.2
		c19.5-7.1,37.6-16.7,54.7-28.4c1.7-1.2,3.3-2.5,4.9-3.6c17-11.9,25.5-28.4,27.6-49c3.6-35.1,4-70.2,0.9-105.2
		c-0.8-9.1-2.4-18.2-4.6-27.1c-3.6-14.7-13.2-23.9-27.7-28.4c-12.2-3.7-24.8-5.1-37.4-5.8C300,82.9,270.8,81.9,241.9,80.7z"/>
	<path fill="#ffff" d="M329.3,191.8c0,8.8,0.1,17.6,0,26.4c-0.2,9.7-5.9,16.7-14.8,18.4c-9.3,1.8-18.4-3.7-20.7-12.9c-0.7-2.5-0.8-5.2-0.9-7.9
		c-0.1-16.1,0-32.3,0-48.4c0-1.4,0-2.9,0.1-4.3c1.2-10.1,8.8-16.9,18.6-16.6c9.6,0.2,17.1,7.6,17.6,17.7c0.3,7.3,0.1,14.7,0.1,22.1
		C329.3,188.1,329.3,189.9,329.3,191.8C329.3,191.8,329.3,191.8,329.3,191.8z"/>
	<path fill="#ffff" d="M191.1,191.8c0,9.2,0.2,18.4-0.1,27.6c-0.4,12.1-11.5,20.1-23.1,16.9c-7.5-2.1-12.7-8.6-12.9-16.8
		c-0.2-9.6-0.1-19.2-0.1-28.8c0-9-0.2-18,0.1-27c0.2-8.9,6.9-16.1,15.4-17.1c9.1-1.1,17.4,4.2,19.8,12.8c0.6,2.1,0.7,4.4,0.7,6.7
		C191.1,174.6,191.1,183.2,191.1,191.8C191.1,191.8,191.1,191.8,191.1,191.8z"/>
</g>
</svg>
