<?xml version="1.0" encoding="utf-8"?>
<!-- Generator: Adobe Illustrator 22.0.1, SVG Export Plug-In . SVG Version: 6.00 Build 0)  -->
<svg version="1.1" id="Capa_1" xmlns="http://www.w3.org/2000/svg" xmlns:xlink="http://www.w3.org/1999/xlink" x="0px" y="0px"
	 viewBox="0 0 484 428" style="enable-background:new 0 0 484 428;" xml:space="preserve">

<g>
	<path fill="#ffff" class="st0" d="M244,393.1c-1.2,0-2.5,0-3.7,0c-0.3-0.1-0.5-0.2-0.8-0.2c-2.5-0.4-5.1-0.6-7.6-1.1c-10-1.8-19.6-4.6-29-8.4
		c-28.1-11.2-51.4-28.9-70.2-52.6c-12.2-15.4-21.7-32.3-29.1-50.5c-5.4-13.5-9.6-27.4-12.7-41.6c-1.9-8.7-3.5-17.5-4.6-26.3
		c-0.7-5.5-1.3-11-1.8-16.6c-0.5-5.7-0.9-11.5-1.2-17.3c-0.2-4-0.3-7.9-0.5-11.9c-0.1-1.5-0.2-2.9-0.3-4.4c0-3.4,0-6.9,0-10.3
		c0.1-0.4,0.1-0.9,0.1-1.3c0.1-4.2,0.2-8.3,0.4-12.5c0.4-7.7,0.8-15.4,1.4-23c0.4-5.8,1-11.6,1.5-17.3c0.3-3.1,1.7-5.7,4.1-7.7
		c1.2-1,2.6-1.6,4.1-2.2c31.5-11.4,63-22.9,94.6-34.3c17.4-6.3,34.7-12.5,52.1-18.7c1,0,2,0,2.9,0c0.9,0.3,1.9,0.6,2.8,0.9
		c42.9,15.6,85.8,31.1,128.7,46.7c5.2,1.9,10.5,3.8,15.7,5.7c4.1,1.5,6.6,4.4,7.4,8.8c0.3,1.9,0.5,3.9,0.6,5.8
		c0.4,4.2,0.8,8.4,1.1,12.6c0.4,6,0.8,11.9,1.1,17.9c0.2,4.2,0.2,8.5,0.3,12.8c0,1.2,0.1,2.4,0.2,3.5c0,5.1,0,10.1,0,15.2
		c0,0.4-0.1,0.9-0.1,1.3c-0.1,3.3,0,6.6-0.2,9.9c-0.4,8.5-0.9,17-1.9,25.4c-0.7,6-1.4,12-2.3,18c-1.4,9.6-3.4,19.1-5.8,28.6
		c-4.5,17.6-10.6,34.5-18.9,50.7c-9.3,18.1-21.1,34.5-35.7,48.8c-15.7,15.4-33.8,27.2-54.1,35.5c-11.6,4.7-23.6,8.1-36,9.7
		C245.6,392.8,244.8,393,244,393.1z M376.7,107c-0.4-0.2-0.8-0.3-1.2-0.5c-30.4-11-60.8-22.1-91.1-33.1c-13.7-5-27.3-9.9-41-14.9
		c-0.8-0.3-1.5-0.3-2.3,0c-2.5,1-5.1,1.9-7.6,2.8c-35.1,12.8-70.3,25.5-105.4,38.2c-6.5,2.3-12.9,4.7-19.4,7c-0.6,0.2-1,0.4-1.1,1.2
		c-0.3,4-0.7,8-1,12c-0.3,4.9-0.6,9.7-0.8,14.6c-0.5,8.7-0.6,17.5-0.5,26.2c0.1,9,0.3,18.1,1.1,27.1c0.5,5.6,0.9,11.2,1.6,16.7
		c0.8,7.2,2,14.4,3.3,21.6c2.4,12.5,5.6,24.9,9.9,36.9c5.5,15.7,12.7,30.5,22.1,44.3c12.7,18.5,28.4,33.9,47.8,45.3
		c14.9,8.8,30.9,14.9,48,17.6c1.4,0.2,2.8,0.4,4.1,0.3c2.6-0.3,5.1-0.7,7.6-1.3c13.8-2.9,26.9-7.9,39.2-14.7
		c21.3-11.8,38.4-28.1,51.9-48.2c10.2-15.2,17.8-31.7,23.4-49.1c3.5-10.8,6.2-21.9,8.3-33c1.5-7.9,2.6-15.9,3.4-23.9
		c0.5-5.3,0.9-10.7,1.3-16c0.6-7.7,0.8-15.4,0.8-23.2c0-4.2,0-8.3-0.1-12.5c-0.2-6.1-0.3-12.1-0.6-18.2c-0.3-5.8-0.8-11.5-1.2-17.3
		C377.1,111.1,376.9,109.1,376.7,107z"/>
	<path fill="#ffff" class="st0" d="M288.1,186c1.6,0,3,0,4.5,0c7.5,0,14,4.9,16.1,12.1c0.4,1.5,0.7,3,0.7,4.6c0,22.4,0,44.8,0,67.3
		c0,9.3-7.4,16.8-16.8,16.8c-10.8,0-21.7,0-32.5,0c-22.6,0-45.3,0-67.9,0c-5.3,0-9.7-2-13.2-6c-2.6-3.1-3.9-6.7-4-10.7
		c0-22.5,0-44.9,0-67.4c0-9.2,7.4-16.6,16.6-16.7c1.5,0,2.9,0,4.6,0c0-0.6,0.1-1.1,0.1-1.6c0-10.6-0.1-21.3,0-31.9
		c0.1-12.7,5.7-22.4,16.5-29c5.1-3.1,10.7-4.6,16.7-4.6c8.5,0,16.9,0,25.4,0c15.9,0,29.7,11.4,32.6,27.1c0.4,2.3,0.6,4.7,0.6,7.1
		c0.1,10.4,0,20.9,0,31.3C288.1,184.9,288.1,185.3,288.1,186z M218.7,185.9c1.7,0.3,46,0.2,46.9-0.1c0-0.3,0-0.6,0-0.9
		c0-10.9,0-21.8,0-32.8c0-0.5,0-1-0.1-1.5c-0.8-5.2-5.2-9.3-10.9-9.3c-8.3,0-16.6,0-24.9,0c-2.3,0-4.5,0.6-6.3,2
		c-3.1,2.3-4.7,5.4-4.7,9.2c0,10.7,0,21.4,0,32C218.7,185,218.7,185.4,218.7,185.9z M235.2,248c0,1.3,0,2.6,0,3.9c0,2.9,0,5.8,0,8.7
		c0,2,1.2,3.5,3,3.6c2.6,0.1,5.2,0.1,7.8,0c1.5-0.1,2.5-1,2.9-2.5c0.2-0.5,0.2-1.1,0.2-1.7c0-8.1,0-16.3,0-24.4
		c0-0.8,0.2-1.3,0.9-1.8c4.1-2.9,6.2-6.9,6-11.9c-0.2-8.8-8.7-15.3-17.2-13c-5.8,1.5-9.4,5.4-10.4,11.3c-0.9,5.7,1.2,10.3,5.8,13.6
		c0.7,0.5,0.9,1,0.9,1.8C235.1,239.8,235.2,243.9,235.2,248z"/>
</g>
</svg>
